{
    "asset" : {
        "generator" : "Khronos glTF Blender I/O v1.7.33",
        "version" : "2.0"
    },
    "scene" : 0,
    "scenes" : [
        {
            "name" : "Scene",
            "nodes" : [
                0
            ]
        }
    ],
    "nodes" : [
        {
            "mesh" : 0,
            "name" : "Mushroom2",
            "translation" : [
                -1.0011587142944336,
                3.317595958709717,
                2.102708101272583
            ]
        }
    ],
    "materials" : [
        {
            "doubleSided" : true,
            "name" : "Mushroom4_1",
            "pbrMetallicRoughness" : {
                "baseColorFactor" : [
                    1,
                    0.6774550080299377,
                    0.3910706341266632,
                    1
                ],
                "metallicFactor" : 0,
                "roughnessFactor" : 0.5
            }
        },
        {
            "doubleSided" : true,
            "name" : "Mushroom4_2",
            "pbrMetallicRoughness" : {
                "baseColorFactor" : [
                    0.7742757201194763,
                    0.2715284824371338,
                    0.05924093350768089,
                    1
                ],
                "metallicFactor" : 0,
                "roughnessFactor" : 0.5
            }
        }
    ],
    "meshes" : [
        {
            "name" : "Cylinder.054",
            "primitives" : [
                {
                    "attributes" : {
                        "POSITION" : 0,
                        "NORMAL" : 1,
                        "TEXCOORD_0" : 2
                    },
                    "indices" : 3,
                    "material" : 0
                },
                {
                    "attributes" : {
                        "POSITION" : 4,
                        "NORMAL" : 5,
                        "TEXCOORD_0" : 6
                    },
                    "indices" : 7,
                    "material" : 1
                }
            ]
        }
    ],
    "accessors" : [
        {
            "bufferView" : 0,
            "componentType" : 5126,
            "count" : 80,
            "max" : [
                0.08902197331190109,
                0.07206431776285172,
                0.1301572620868683
            ],
            "min" : [
                -0.12272085249423981,
                -0.35373973846435547,
                -0.13055747747421265
            ],
            "type" : "VEC3"
        },
        {
            "bufferView" : 1,
            "componentType" : 5126,
            "count" : 80,
            "type" : "VEC3"
        },
        {
            "bufferView" : 2,
            "componentType" : 5126,
            "count" : 80,
            "type" : "VEC2"
        },
        {
            "bufferView" : 3,
            "componentType" : 5123,
            "count" : 132,
            "type" : "SCALAR"
        },
        {
            "bufferView" : 4,
            "componentType" : 5126,
            "count" : 96,
            "max" : [
                0.2785649001598358,
                0.4596118628978729,
                0.3089074492454529
            ],
            "min" : [
                -0.2780279219150543,
                -0.05542897433042526,
                -0.2809610962867737
            ],
            "type" : "VEC3"
        },
        {
            "bufferView" : 5,
            "componentType" : 5126,
            "count" : 96,
            "type" : "VEC3"
        },
        {
            "bufferView" : 6,
            "componentType" : 5126,
            "count" : 96,
            "type" : "VEC2"
        },
        {
            "bufferView" : 7,
            "componentType" : 5123,
            "count" : 138,
            "type" : "SCALAR"
        }
    ],
    "bufferViews" : [
        {
            "buffer" : 0,
            "byteLength" : 960,
            "byteOffset" : 0
        },
        {
            "buffer" : 0,
            "byteLength" : 960,
            "byteOffset" : 960
        },
        {
            "buffer" : 0,
            "byteLength" : 640,
            "byteOffset" : 1920
        },
        {
            "buffer" : 0,
            "byteLength" : 264,
            "byteOffset" : 2560
        },
        {
            "buffer" : 0,
            "byteLength" : 1152,
            "byteOffset" : 2824
        },
        {
            "buffer" : 0,
            "byteLength" : 1152,
            "byteOffset" : 3976
        },
        {
            "buffer" : 0,
            "byteLength" : 768,
            "byteOffset" : 5128
        },
        {
            "buffer" : 0,
            "byteLength" : 276,
            "byteOffset" : 5896
        }
    ],
    "buffers" : [
        {
            "byteLength" : 6172,
            "uri" : "data:application/octet-stream;base64,"
        }
    ]
}
